<svg xmlns="http://www.w3.org/2000/svg" version="1.1" xmlns:xlink="http://www.w3.org/1999/xlink" xmlns:svgjs="http://svgjs.dev/svgjs" width="100%" height="100%" viewBox="0 0 1000 600"><rect width="1000" height="600" x="0" y="0" fill="#004f4f"/><g><circle r="166.66666666666666" cx="442.2474161783854" cy="464.46949883673085" fill="#f7c5cc" transform="matrix(0.45358779529901727,0,0,0.45358779529901727,0,89.3223002243105)"/><path d="M392.92185615576045 493.39768168226976L392.92185615576045 493.39768168226976Q398.2536092801996 514.4786132665907 410.85842051284806 514.4786132665907L410.85842051284806 514.4786132665907Q416.95575870130926 514.4786132665907 421.87737697002234 510.7327149176258Q426.7989952387354 506.98681656866086 430.73628985370584 502.5573601268191Q434.67358446867627 498.1279036849773 437.6265554299041 494.3820053360124Q440.57952639113194 490.6361069870474 443.12236249663374 490.6361069870474Q445.69254092585055 490.6361069870474 445.69254092585055 497.3349762972402L445.69254092585055 497.3349762972402Q445.69254092585055 511.3069037156423 432.7049371611911 524.3218498040169Q419.71733339653156 537.3094535686764 403.66738937578396 537.2000842738161Q387.61744535503635 537.1180573026709 375.0126341223879 508.9554638761461L375.0126341223879 508.9554638761461Q371.4854743631435 501.08087464620513 368.31376481219513 493.01488915025874L368.31376481219513 493.01488915025874L366.94664862644146 519.9744203333203Q366.94664862644146 523.7203186822853 366.56385609443043 527.3568477363899Q366.15372123870435 530.9933767904945 363.2007502774765 533.3721589537058L363.2007502774765 533.3721589537058Q355.51755731354115 539.469497142167 347.6429680836002 539.469497142167L347.6429680836002 539.469497142167Q338.4012626679057 539.469497142167 338.4012626679057 520.3845551890464L338.4012626679057 520.3845551890464Q338.4012626679057 492.8234928842532 344.90873571209295 462.69225215024323Q351.3888664325652 432.5610114162332 357.59557391588663 417.3039947832227Q363.80228139920814 402.0469781502122 367.2474141873073 396.93396361549367Q370.6925469754064 391.8209490807751 372.66119428289164 390.6452291610269Q374.6298415903768 389.46950924127884 377.0906507247334 389.46950924127884Q379.55145985908996 389.46950924127884 382.31303455431225 391.93031837563535Q385.04726692581954 394.3911275099919 388.2189764767679 399.3947727498502Q391.3633437040013 404.42576031342355 391.44537067514653 409.2380092872763Q391.55473997000684 414.07760058484416 389.8868582233874 418.6984532926914Q388.2189764767679 423.3193060005387 385.4574017815456 427.7487624423805Q382.6958270863233 432.17821888422225 379.3600635930844 436.7990715920695Q375.9969577761305 441.4199242999168 372.66119428289164 446.75167742435593L372.66119428289164 446.75167742435593L370.6925469754064 463.29378327197486Q377.5828125516047 448.91172099784666 390.9532088482752 443.9901027291336L390.9532088482752 443.9901027291336Q395.68343085098275 442.2128516876539 401.99950762916455 442.2128516876539L401.99950762916455 442.2128516876539Q414.57697653809794 442.2128516876539 421.2758458482907 448.22816290496985Q427.9747151584835 454.21613179857076 427.9747151584835 465.8366193774766Q427.9747151584835 477.45710695638246 416.35422757957764 485.52309245232885Q404.7337400006718 493.58907794827525 392.92185615576045 493.39768168226976ZM400.41365285369034 470.37544511417866L400.41365285369034 470.37544511417866Q400.41365285369034 463.29378327197486 392.34766735774394 463.29378327197486Q384.2816818617975 463.29378327197486 374.82123785638237 478.8242231421361L374.82123785638237 478.8242231421361Q372.0596631611601 483.36304887883813 370.09101585367483 488.09327088154566L370.09101585367483 488.09327088154566Q390.5704163162642 486.91755096179753 398.06221301419407 477.07431442437144L398.06221301419407 477.07431442437144Q400.41365285369034 473.902604873423 400.41365285369034 470.37544511417866ZM493.32286883750703 493.39768168226976L493.32286883750703 493.39768168226976Q498.6546219619462 514.4786132665907 511.25943319459464 514.4786132665907L511.25943319459464 514.4786132665907Q517.3567713830558 514.4786132665907 522.2783896517689 510.7327149176258Q527.200007920482 506.98681656866086 531.1373025354524 502.5573601268191Q535.074597150423 498.1279036849773 538.0275681116507 494.3820053360124Q540.9805390728786 490.6361069870474 543.5233751783803 490.6361069870474Q546.0935536075972 490.6361069870474 546.0935536075972 497.3349762972402L546.0935536075972 497.3349762972402Q546.0935536075972 511.3069037156423 533.1059498429377 524.3218498040169Q520.1183460782781 537.3094535686764 504.06840205753053 537.2000842738161Q488.01845803678293 537.1180573026709 475.4136468041345 508.9554638761461L475.4136468041345 508.9554638761461Q471.8864870448901 501.08087464620513 468.71477749394165 493.01488915025874L468.71477749394165 493.01488915025874L467.34766130818804 519.9744203333203Q467.34766130818804 523.7203186822853 466.964868776177 527.3568477363899Q466.55473392045093 530.9933767904945 463.60176295922315 533.3721589537058L463.60176295922315 533.3721589537058Q455.9185699952877 539.469497142167 448.04398076534676 539.469497142167L448.04398076534676 539.469497142167Q438.80227534965223 539.469497142167 438.80227534965223 520.3845551890464L438.80227534965223 520.3845551890464Q438.80227534965223 492.8234928842532 445.3097483938395 462.69225215024323Q451.78987911431176 432.5610114162332 457.9965865976332 417.3039947832227Q464.2032940809547 402.0469781502122 467.6484268690539 396.93396361549367Q471.09355965715304 391.8209490807751 473.0622069646382 390.6452291610269Q475.03085427212346 389.46950924127884 477.49166340648 389.46950924127884Q479.95247254083654 389.46950924127884 482.71404723605883 391.93031837563535Q485.4482796075661 394.3911275099919 488.6199891585145 399.3947727498502Q491.7643563857479 404.42576031342355 491.84638335689306 409.2380092872763Q491.9557526517534 414.07760058484416 490.28787090513396 418.6984532926914Q488.6199891585145 423.3193060005387 485.8584144632922 427.7487624423805Q483.09683976806986 432.17821888422225 479.761076274831 436.7990715920695Q476.3979704578771 441.4199242999168 473.0622069646382 446.75167742435593L473.0622069646382 446.75167742435593L471.09355965715304 463.29378327197486Q477.98382523335124 448.91172099784666 491.35422153002173 443.9901027291336L491.35422153002173 443.9901027291336Q496.0844435327293 442.2128516876539 502.40052031091113 442.2128516876539L502.40052031091113 442.2128516876539Q514.9779892198444 442.2128516876539 521.6768585300373 448.22816290496985Q528.3757278402301 454.21613179857076 528.3757278402301 465.8366193774766Q528.3757278402301 477.45710695638246 516.7552402613242 485.52309245232885Q505.13475268241837 493.58907794827525 493.32286883750703 493.39768168226976ZM500.8146655354369 470.37544511417866L500.8146655354369 470.37544511417866Q500.8146655354369 463.29378327197486 492.74868003949047 463.29378327197486Q484.6826945435441 463.29378327197486 475.22225053812895 478.8242231421361L475.22225053812895 478.8242231421361Q472.46067584290665 483.36304887883813 470.49202853542135 488.09327088154566L470.49202853542135 488.09327088154566Q490.97142899801077 486.91755096179753 498.46322569594065 477.07431442437144L498.46322569594065 477.07431442437144Q500.8146655354369 473.902604873423 500.8146655354369 470.37544511417866Z " fill="#209cee" transform="matrix(0.45358779529901727,0,0,0.45358779529901727,0,89.3223002243105)"/><path d="M736.0091076295621 528.4397047961902L736.0091076295621 528.4397047961902Q736.0091076295621 539.290767921407 714.8686834703165 539.290767921407L714.8686834703165 539.290767921407Q710.2729390878717 539.290767921407 709.4303859510901 534.592895886019Q708.6133647275444 529.9205557638669 708.6133647275444 521.826939268117L708.6133647275444 521.826939268117Q708.6133647275444 506.0226849751544 716.8857046159449 474.95034656718104Q725.1580445043453 443.8780081592077 733.6091077853964 425.1375838441276L733.6091077853964 425.1375838441276Q713.9495345938274 425.49503062942887 704.1963437377503 432.8482216413404L704.1963437377503 432.8482216413404Q701.2601737156328 435.0694980928553 699.421875962655 436.80566819289Q697.5835782096772 438.54183829292464 696.2048548949438 438.54183829292464Q694.8261315802104 438.54183829292464 693.5240040051842 436.44822140758873Q692.2474083433941 434.32907260901703 692.2474083433941 431.39290258689954L692.2474083433941 431.39290258689954Q692.2474083433941 421.2822649455212 701.2601737156328 415.7673716865876L701.2601737156328 415.7673716865876Q714.128257986478 408.03120197613896 737.8474053825399 405.45247873932277L737.8474053825399 405.45247873932277Q748.3154898092196 404.35460647018317 756.9452764829213 404.35460647018317L756.9452764829213 404.35460647018317L757.3282551814583 404.35460647018317Q758.6048508432485 404.35460647018317 760.9027230344709 405.8354574378599Q763.2005952256932 407.29077649230067 763.2005952256932 410.6099252129552Q763.2005952256932 413.9290739336097 762.0005953036105 418.0652438778099Q760.8261272947634 422.2014138220101 758.7835742358991 424.21843496763864L758.7835742358991 424.21843496763864Q757.6857019667596 433.026945033991 754.0091064608039 445.3588591268843Q750.332510954848 457.6652413065418 746.2984686635909 471.63119784652656L746.2984686635909 471.63119784652656Q736.0091076295621 507.68225933548166 736.0091076295621 528.4397047961902ZM826.8005910960808 493.15460070430925L826.8005910960808 493.15460070430925Q829.9410164240846 493.15460070430925 829.9410164240846 501.60566398536037L829.9410164240846 501.60566398536037Q829.9410164240846 506.2014083678051 826.0856975254783 512.7375781561709Q822.204846713636 519.2482160313009 816.0516556238074 524.686513550527Q809.8984645339785 530.0992791565175 802.3665501294164 533.5971512698227Q794.8346357248543 537.0950233831278 788.0176148908946 537.0950233831278Q781.2261259701708 537.0950233831278 777.3708070715644 534.5163001463116Q773.4899562597222 531.9375769094954 771.294211721443 527.5205559197013L771.294211721443 527.5205559197013Q768.179318306675 521.2652371769293 766.1367652478107 503.72481278393207Q764.1197441021822 486.158856477699 762.1027229565536 479.1886441643245L762.1027229565536 479.1886441643245Q757.3282551814583 478.2694952878356 753.72825541521 475.40992100542553Q750.1537875621974 472.5503467230155 750.1537875621974 468.41417677881526Q750.1537875621974 464.27800683461504 753.9325107210964 462.43970908163715Q757.6857019667596 460.60141132865925 762.4601697418549 460.60141132865925Q767.260169430186 460.60141132865925 770.9367649361418 462.8226877801742L770.9367649361418 462.8226877801742Q780.8431472716337 452.15034804760813 788.9367637673836 434.8652427869689L788.9367637673836 434.8652427869689Q792.6133592733394 426.9758815971055 796.0091037337013 418.6014140557618Q799.430380107299 410.2524784276539 803.1069756132547 401.4184364480658L803.1069756132547 401.4184364480658Q804.0261244897437 399.2226919097866 807.0388902515685 398.76311747154216Q810.0771879266292 398.3035430332977 815.055911007611 398.3035430332977Q820.0091021753569 398.3035430332977 822.0261233209854 401.520564101009Q824.043144466614 404.7375851687203 824.043144466614 411.9886485276886Q824.043144466614 419.2397118866569 820.1878255680076 428.6354559574327Q816.3325066694011 438.00566811497276 810.2559113192799 446.81417818132513L810.2559113192799 446.81417818132513Q797.5920823543211 465.4014110169904 781.0474025775202 474.7716231745304L781.0474025775202 474.7716231745304Q783.9835725996376 480.822686611416 785.8218703526155 488.09928188362005Q787.6601681055934 495.3503452425884 789.3197424659206 501.5035363324171Q790.9537849130121 507.68225933548166 793.0729337115838 511.81842927968194Q795.1920825101555 515.9545992238822 798.3069759249236 515.9545992238822Q801.4474012529275 515.9545992238822 805.7622945897783 512.3545994576339Q810.0771879266292 508.78013160462126 814.3154855237726 504.5418340074778Q818.5282512076803 500.32906832357014 821.9495275812781 496.7290685573218Q825.34527204164 493.15460070430925 826.8005910960808 493.15460070430925ZM863.5665461556384 516.4907694018341L863.5665461556384 516.4907694018341Q877.9154813941602 516.4907694018341 891.3452677561932 505.1035360986655L891.3452677561932 505.1035360986655Q896.298458923939 500.865238501522 899.4133523387072 497.29077064850946Q902.5537776667111 493.6907708822611 904.2133520270382 493.6907708822611L904.2133520270382 493.6907708822611Q906.7665433506187 493.6907708822611 906.7665433506187 498.8482173558935Q906.7665433506187 504.00566382952593 904.0090967211519 510.3375783120053Q901.2516500916851 516.6694927944847 894.8176079562625 522.746088144606L894.8176079562625 522.746088144606Q879.0133536632998 537.6311935610797 851.4388873686316 537.6311935610797L851.4388873686316 537.6311935610797Q829.5580377255476 537.6311935610797 821.6686765356842 521.826939268117L821.6686765356842 521.826939268117Q818.9112299062174 516.3120460091834 818.9112299062174 506.0226849751544Q818.9112299062174 495.73332394112543 822.9452721974744 484.6014097703149Q827.0048464019673 473.46949559950446 833.6942076697478 465.4014110169904Q840.4091008507643 457.3077945212405 849.2431428303524 452.78864587850325Q858.0516528967048 448.2950291490018 868.0856947983757 448.2950291490018Q878.0942047868109 448.2950291490018 883.5325023060371 453.24822031674773Q888.9452679120276 458.2269433977295 888.9452679120276 466.1163045875929Q888.9452679120276 474.03119769069207 884.9878213604779 479.08651651138126Q881.0303748089283 484.14183533207046 874.8005879793922 487.5375797924324Q868.5452692366202 490.9333242527943 860.9112271791148 493.61417514255373Q853.2771851216095 496.26949411907736 845.9239941096979 499.58864283973185L845.9239941096979 499.58864283973185L845.9239941096979 504.18438722217655Q846.1027175023485 510.7971527502498 851.4388873686316 513.5545993797166Q856.7750572349146 516.3120460091834 863.5665461556384 516.4907694018341ZM860.4516527408704 464.6609855331521L860.4516527408704 464.6609855331521Q850.9027171906797 464.6609855331521 847.2261216847239 486.89928196153727L847.2261216847239 486.89928196153727Q851.0814405833303 484.3205587247211 854.4771850436923 482.3035375790926Q857.8729295040541 480.2865164334641 860.4516527408704 478.4482186804862L860.4516527408704 478.4482186804862Q865.966545999804 474.3886444759933 866.1452693924546 469.2567299155968L866.1452693924546 469.2567299155968Q866.1452693924546 464.6609855331521 860.4516527408704 464.6609855331521ZM924.434627309795 505.63970627661735L924.434627309795 505.63970627661735L925.5324995789346 528.0822580108891Q925.5324995789346 532.4992790006831 920.9367551964899 535.9716192007525Q916.3410108140451 539.4694913140576 908.426117710946 539.4694913140576L908.426117710946 539.4694913140576Q903.8303733285012 539.4694913140576 902.0942032284665 534.6950235389622Q900.3325012151961 529.9205557638669 900.3325012151961 520.7290669989775L900.3325012151961 520.7290669989775Q900.3325012151961 501.42694059270974 902.2729266211172 490.4737498145498Q904.2133520270382 479.54609094962575 909.9069686786225 468.3375810391078L909.9069686786225 468.3375810391078Q901.4559053975714 460.243964543358 901.4559053975714 454.3716244991231L901.4559053975714 454.3716244991231Q901.4559053975714 442.0397104062298 914.6814364537179 442.0397104062298L914.6814364537179 442.0397104062298Q921.4729253744417 442.0397104062298 926.6303718480741 449.2141780254907L926.6303718480741 449.2141780254907Q930.3069673540299 454.16736919323665 931.9665417143572 460.8056666345457L931.9665417143572 460.8056666345457Q934.5452649511734 461.7248155110346 938.4005838497798 461.7248155110346L938.4005838497798 461.7248155110346Q943.7367537160628 461.7248155110346 950.7069660294372 458.2269433977295L950.7069660294372 458.2269433977295L955.4814338045326 455.8269435535639Q957.7027102560476 454.7290712844244 959.3622846163748 454.7290712844244L959.3622846163748 454.7290712844244Q964.6729225694219 454.7290712844244 970.009092435705 470.35460218473634L970.009092435705 470.35460218473634Q968.3495180753778 477.52906980399723 966.4346245826924 484.14183533207046Q964.4941991767714 490.7546008601437 961.9154759399552 500.1248130176837Q959.3622846163748 509.52055708845955 959.2601569634315 512.7375781561709Q959.1580293104884 515.9545992238822 961.2005823693527 515.9545992238822L961.2005823693527 515.9545992238822Q963.9580289988195 515.9545992238822 967.9920712900764 512.456727110577Q972.0261135813334 508.9588549972719 976.0856877858264 504.82268505307167Q980.1197300770833 500.6865151088714 983.5154745374452 497.1886429955663Q986.936750911043 493.6907708822611 988.2133465728332 493.6907708822611L988.2133465728332 493.6907708822611Q990.7920698096493 493.6907708822611 990.7920698096493 499.9460896250331L990.7920698096493 499.9460896250331Q990.7920698096493 512.6354505032277 979.6601556388389 524.9418326828852Q968.5537733812641 537.2737467757784 954.2048381427423 537.0950233831278L954.2048381427423 537.0950233831278Q945.7537748616912 537.0950233831278 941.5154772645478 530.2780025491681Q937.3027115806402 523.4865136284443 937.0984562747537 513.7333227723673L937.0984562747537 513.7333227723673Q937.0984562747537 494.43119636609947 945.7537748616912 477.1460911054602L945.7537748616912 477.1460911054602Q941.6942006571985 478.80566546578746 936.6388818365092 478.80566546578746Q931.5835630158201 478.80566546578746 929.3878184775409 478.4482186804862L929.3878184775409 478.4482186804862Q927.7282441172138 485.4184309938607 926.0686697568865 492.5163028734142Q924.434627309795 499.58864283973185 924.434627309795 505.63970627661735ZM1094.4771694602491 493.15460070430925L1094.4771694602491 493.15460070430925Q1097.770786267668 493.15460070430925 1097.770786267668 501.60566398536037L1097.770786267668 501.60566398536037Q1097.770786267668 506.2014083678051 1093.9154673690614 512.7375781561709Q1090.060148470455 519.2482160313009 1083.9069573806264 524.686513550527Q1077.7282343775616 530.0992791565175 1070.1963199729996 533.5971512698227Q1062.6644055684374 537.0950233831278 1055.4899379491767 537.0950233831278L1055.4899379491767 537.0950233831278Q1045.7622790063353 537.0950233831278 1042.4431302856806 519.9886415151391L1042.4431302856806 519.9886415151391Q1037.6686625105854 527.9035346182384 1029.9324928001367 532.9588534389276Q1022.221855002924 538.0141722596168 1009.2516430791356 538.0141722596168Q996.306963068583 538.0141722596168 988.3920699654839 529.9205557638669Q980.5027087756205 521.826939268117 980.681432168271 510.23545065906205L980.681432168271 510.23545065906205Q980.681432168271 478.9843888584381 1001.4388776289795 460.9843900271963L1001.4388776289795 460.9843900271963Q1010.2729196085678 453.45247562263415 1017.9069616660731 451.0524757784686Q1025.5410037235786 448.652475934303 1033.9920670046297 448.652475934303Q1042.4431302856806 448.652475934303 1047.7793001519638 451.61417786965626L1047.7793001519638 451.61417786965626Q1050.3580233887799 446.27800800337326 1053.6516401961987 446.27800800337326L1053.6516401961987 446.27800800337326Q1060.0856823316212 446.27800800337326 1065.8814266361487 451.8694970020143Q1071.6771709406762 457.4865179138912 1071.6771709406762 462.43970908163715L1071.6771709406762 462.43970908163715Q1069.09844770386 468.51630443175844 1064.1452565361142 476.96736771280956L1064.1452565361142 476.96736771280956Q1062.6644055684374 485.4184309938607 1062.6644055684374 500.6865151088714Q1062.6644055684374 515.9545992238822 1066.519724467044 515.9545992238822L1066.519724467044 515.9545992238822Q1071.2941922421392 515.9545992238822 1089.677169771918 496.83119621026503L1089.677169771918 496.83119621026503Q1092.9963184925725 493.15460070430925 1094.4771694602491 493.15460070430925ZM1007.6941963717516 504.18438722217655L1007.6941963717516 504.18438722217655Q1007.6941963717516 518.3290671548119 1018.187812711667 518.3290671548119L1018.187812711667 518.3290671548119Q1029.396322622185 518.1503437621614 1036.7495136340965 506.3801317604557L1036.7495136340965 506.3801317604557Q1039.3282368709126 502.34608946919866 1040.9622793180042 496.44821751172793L1040.9622793180042 496.44821751172793Q1040.9622793180042 475.86949544366996 1044.63887482396 461.1631134198469L1044.63887482396 461.1631134198469Q1029.7537694074863 464.09928344196436 1018.7239828896188 475.51204865836877Q1007.6941963717516 486.89928196153727 1007.6941963717516 504.18438722217655ZM1129.5835501594795 537.0950233831278L1129.5835501594795 537.0950233831278Q1103.2856795266016 537.2737467757784 1093.7367439764107 517.409918278323L1093.7367439764107 517.409918278323Q1090.4175952557562 510.4397059649485 1090.4175952557562 499.86949388532565Q1090.4175952557562 489.29928180570283 1092.2558930087341 477.3503464113466L1092.2558930087341 477.3503464113466Q1095.93248851469 453.45247562263415 1106.4261048546055 433.23120033987743L1106.4261048546055 433.23120033987743Q1111.7367428076527 422.9163073926127 1118.3750402489616 415.5631163807011L1118.3750402489616 415.5631163807011Q1132.8771669668981 399.4014153024373 1150.7239743187251 399.58013869508784L1150.7239743187251 399.58013869508784Q1158.6133355085885 399.58013869508784 1163.132484151326 403.89503203193874Q1167.6261008808274 408.20992536878964 1167.6261008808274 416.3035418645394Q1167.6261008808274 424.39715836028927 1162.851633105732 432.5673705957465Q1158.0771653306367 440.76311474443963 1150.621846665782 449.49502907108456Q1143.192059914163 458.2269433977295 1134.1792945419243 467.77587894792015Q1125.1665291696854 477.3503464113466 1116.5367424959836 488.55885632186454L1116.5367424959836 488.55885632186454L1116.5367424959836 495.9120473337761Q1116.5367424959836 506.2014083678051 1120.928231572542 510.9758761429004Q1125.345252562336 515.7503439179957 1131.2431245198068 515.7503439179957L1131.2431245198068 515.7503439179957Q1147.0473788127695 515.7503439179957 1159.1750375997763 500.1248130176837L1159.1750375997763 500.1248130176837Q1164.1282287675222 493.6907708822611 1166.7069520043385 493.6907708822611L1166.7069520043385 493.6907708822611Q1169.2856752411546 493.6907708822611 1169.2856752411546 499.9460896250331Q1169.2856752411546 506.2014083678051 1165.8899307807926 512.7375781561709Q1162.4941863204308 519.2482160313009 1156.9792930614972 524.686513550527Q1151.4643998025635 530.0992791565175 1144.2899321833027 533.5971512698227Q1137.1154645640418 537.0950233831278 1129.5835501594795 537.0950233831278ZM1139.5154644082072 438.363114900274Q1143.3707833068138 433.5886471251787 1145.5665278450929 429.7333282265723Q1147.7878042966076 425.8780093279659 1147.7878042966076 421.7418393837657Q1147.7878042966076 417.6056694395654 1144.8261023612545 417.6056694395654L1144.8261023612545 417.6056694395654Q1138.3920602258318 417.6056694395654 1130.5792947756759 430.83120049571187Q1122.76652932552 444.0567315518583 1118.9112104269134 465.580134409641L1118.9112104269134 465.580134409641Q1125.1665291696854 456.00566694621455 1130.4005713830252 449.57162481079195Q1135.634613596365 443.1375826753694 1139.5154644082072 438.363114900274ZM1271.3112005314272 493.15460070430925L1271.3112005314272 493.15460070430925Q1274.6303492520815 493.15460070430925 1274.6303492520815 501.60566398536037L1274.6303492520815 501.60566398536037Q1274.6303492520815 506.2014083678051 1270.7494984402394 512.7375781561709Q1266.894179541633 519.2482160313009 1260.7409884518042 524.686513550527Q1254.5877973619754 530.0992791565175 1247.0558829574134 533.5971512698227Q1239.4984366396156 537.0950233831278 1232.3495009335902 537.0950233831278L1232.3495009335902 537.0950233831278Q1222.5963100775132 537.0950233831278 1219.2771613568589 519.9886415151391L1219.2771613568589 519.9886415151391Q1214.5026935817634 527.9035346182384 1206.7920557845505 532.9588534389276Q1199.055886074102 538.0141722596168 1186.1112060635494 538.0141722596168Q1173.140994139761 538.0141722596168 1165.2516329498976 529.9205557638669Q1157.3367398467983 521.826939268117 1157.515463239449 510.23545065906205L1157.515463239449 510.23545065906205Q1157.515463239449 478.9843888584381 1178.2984406133933 460.9843900271963L1178.2984406133933 460.9843900271963Q1187.1069506797458 453.45247562263415 1194.7409927372512 451.0524757784686Q1202.3750347947566 448.652475934303 1210.8260980758077 448.652475934303Q1219.2771613568589 448.652475934303 1224.6133312231418 451.61417786965626L1224.6133312231418 451.61417786965626Q1227.192054459958 446.27800800337326 1230.5112031806125 446.27800800337326L1230.5112031806125 446.27800800337326Q1236.9452453160352 446.27800800337326 1242.7154577073266 451.8694970020143Q1248.511202011854 457.4865179138912 1248.511202011854 462.43970908163715L1248.511202011854 462.43970908163715Q1245.932478775038 468.51630443175844 1240.979287607292 476.96736771280956L1240.979287607292 476.96736771280956Q1239.4984366396156 485.4184309938607 1239.4984366396156 500.6865151088714Q1239.4984366396156 515.9545992238822 1243.3792874514575 515.9545992238822L1243.3792874514575 515.9545992238822Q1248.153755226553 515.9545992238822 1266.5367327563317 496.83119621026503L1266.5367327563317 496.83119621026503Q1269.8303495637506 493.15460070430925 1271.3112005314272 493.15460070430925ZM1184.5537593561653 504.18438722217655L1184.5537593561653 504.18438722217655Q1184.5537593561653 518.3290671548119 1195.0218437828448 518.3290671548119L1195.0218437828448 518.3290671548119Q1206.2303536933628 518.1503437621614 1213.5835447052746 506.3801317604557L1213.5835447052746 506.3801317604557Q1216.1622679420907 502.34608946919866 1217.8218423024177 496.44821751172793L1217.8218423024177 496.44821751172793Q1217.8218423024177 475.86949544366996 1221.4984378083736 461.1631134198469L1221.4984378083736 461.1631134198469Q1206.6133323918998 464.09928344196436 1195.5835458740326 475.51204865836877Q1184.5537593561653 486.89928196153727 1184.5537593561653 504.18438722217655ZM1379.0303424732838 528.4397047961902L1379.0303424732838 528.4397047961902Q1379.0303424732838 539.290767921407 1357.8899183140381 539.290767921407L1357.8899183140381 539.290767921407Q1353.2941739315934 539.290767921407 1352.477152708048 534.592895886019Q1351.6345995712663 529.9205557638669 1351.6345995712663 521.826939268117L1351.6345995712663 521.826939268117Q1351.6345995712663 506.0226849751544 1359.9069394596668 474.95034656718104Q1368.1792793480672 443.8780081592077 1376.655874542354 425.1375838441276L1376.655874542354 425.1375838441276Q1356.9707694375493 425.49503062942887 1347.243110494708 432.8482216413404L1347.243110494708 432.8482216413404Q1344.2814085593548 435.0694980928553 1342.4431108063768 436.80566819289Q1340.604813053399 438.54183829292464 1339.2260897386655 438.54183829292464Q1337.8473664239323 438.54183829292464 1336.5707707621418 436.44822140758873Q1335.2941751003518 434.32907260901703 1335.2941751003518 431.39290258689954L1335.2941751003518 431.39290258689954Q1335.2941751003518 421.2822649455212 1344.2814085593548 415.7673716865876L1344.2814085593548 415.7673716865876Q1357.1494928302 408.03120197613896 1380.868640226262 405.45247873932277L1380.868640226262 405.45247873932277Q1391.3622565661772 404.35460647018317 1399.992043239879 404.35460647018317L1399.992043239879 404.35460647018317L1400.34949002518 404.35460647018317Q1401.651617600206 404.35460647018317 1403.9494897914285 405.8354574378599Q1406.247361982651 407.29077649230067 1406.247361982651 410.6099252129552Q1406.247361982651 413.9290739336097 1405.047362060568 418.0652438778099Q1403.8473621384853 422.2014138220101 1401.8303409928567 424.21843496763864L1401.8303409928567 424.21843496763864Q1400.7324687237171 433.026945033991 1397.0558732177615 445.3588591268843Q1393.3792777118056 457.6652413065418 1389.3197035073129 471.63119784652656L1389.3197035073129 471.63119784652656Q1379.0303424732838 507.68225933548166 1379.0303424732838 528.4397047961902ZM1469.8473578530384 493.15460070430925L1469.8473578530384 493.15460070430925Q1472.9622512678066 493.15460070430925 1472.9622512678066 501.60566398536037L1472.9622512678066 501.60566398536037Q1472.9622512678066 506.2014083678051 1469.1069323692002 512.7375781561709Q1465.2516134705938 519.2482160313009 1459.098422380765 524.686513550527Q1452.9452312909361 530.0992791565175 1445.3877849731384 533.5971512698227Q1437.8558705685762 537.0950233831278 1431.0643816478523 537.0950233831278Q1424.2473608138926 537.0950233831278 1420.3920419152864 534.5163001463116Q1416.5367230166798 531.9375769094954 1414.3409784784008 527.5205559197013L1414.3409784784008 527.5205559197013Q1411.200553150397 521.2652371769293 1409.1835320047683 503.72481278393207Q1407.1665108591399 486.158856477699 1405.1494897135112 479.1886441643245L1405.1494897135112 479.1886441643245Q1400.34949002518 478.2694952878356 1396.7750221721676 475.40992100542553Q1393.200554319155 472.5503467230155 1393.200554319155 468.41417677881526Q1393.200554319155 464.27800683461504 1396.9537455648183 462.43970908163715Q1400.7324687237171 460.60141132865925 1405.5069364988126 460.60141132865925Q1410.2814042739078 460.60141132865925 1413.9579997798637 462.8226877801742L1413.9579997798637 462.8226877801742Q1423.8899140285912 452.15034804760813 1431.9835305243412 434.8652427869689L1431.9835305243412 434.8652427869689Q1435.6601260302969 426.9758815971055 1439.055870490659 418.6014140557618Q1442.451614951021 410.2524784276539 1446.1282104569766 401.4184364480658L1446.1282104569766 401.4184364480658Q1447.0473593334655 399.2226919097866 1450.0856570085261 398.76311747154216Q1453.1239546835868 398.3035430332977 1458.0771458513327 398.3035430332977Q1463.0558689323145 398.3035430332977 1465.0728900779432 401.520564101009Q1467.0899112235716 404.7375851687203 1467.0899112235716 411.9886485276886Q1467.0899112235716 419.2397118866569 1463.2345923249652 428.6354559574327Q1459.3792734263588 438.00566811497276 1453.3026780762375 446.81417818132513L1453.3026780762375 446.81417818132513Q1440.6133171980428 465.4014110169904 1424.0686374212419 474.7716231745304L1424.0686374212419 474.7716231745304Q1427.0048074433594 480.822686611416 1428.8431051963373 488.09928188362005Q1430.6814029493153 495.3503452425884 1432.3409773096423 501.5035363324171Q1434.0005516699698 507.68225933548166 1436.1197004685414 511.81842927968194Q1438.238849267113 515.9545992238822 1441.3537426818812 515.9545992238822Q1444.4686360966493 515.9545992238822 1448.8090613467361 512.3545994576339Q1453.1239546835868 508.78013160462126 1457.3367203674943 504.5418340074778Q1461.575017964638 500.32906832357014 1464.970762425 496.7290685573218Q1468.3665068853618 493.15460070430925 1469.8473578530384 493.15460070430925ZM1485.8303355386518 537.0950233831278L1485.8303355386518 537.0950233831278Q1467.447358008873 537.0950233831278 1467.447358008873 502.7035362544999L1467.447358008873 502.7035362544999Q1467.447358008873 483.96311193941983 1472.0431023913175 468.6950278244091L1472.0431023913175 468.6950278244091Q1479.2175700105784 445.18013573423366 1488.2303353828174 445.18013573423366L1488.2303353828174 445.18013573423366Q1493.5665052491004 445.18013573423366 1496.6813986638683 452.3290714402588L1496.6813986638683 452.3290714402588Q1499.2601219006847 457.84396469919244 1499.081398508034 463.18013456547544L1499.081398508034 463.18013456547544Q1499.081398508034 470.53332557738696 1494.6643775182397 489.0950264998164L1494.6643775182397 489.0950264998164Q1490.4260799210963 505.2822594913161 1490.4260799210963 509.13757838992245Q1490.4260799210963 512.9928972885289 1492.3665053270174 514.4737482562055Q1494.3069307329388 515.9545992238822 1496.9622497094622 515.9545992238822Q1499.6175686859856 515.9545992238822 1503.6771428904785 512.456727110577Q1507.7111851817358 508.9588549972719 1511.7707593862283 504.82268505307167Q1515.8048016774856 500.6865151088714 1519.2005461378476 497.1886429955663Q1522.5962905982092 493.6907708822611 1523.8984181732353 493.6907708822611L1523.8984181732353 493.6907708822611Q1526.4771414100514 493.6907708822611 1526.4771414100514 499.9460896250331L1526.4771414100514 499.9460896250331Q1526.4771414100514 512.8141738958782 1513.506929486263 525.0439603358284Q1500.5367175624747 537.2737467757784 1485.8303355386518 537.0950233831278ZM1493.3877818564497 430.2694984045242L1493.3877818564497 430.2694984045242Q1488.409058775468 422.9163073926127 1488.409058775468 414.46524411156156Q1488.409058775468 406.01418083051044 1491.0899096652274 400.39715991863363Q1493.7452286417508 394.80567091999256 1496.1452284859165 392.12482003023314Q1498.5196964168463 389.4695010537095 1501.6601217448501 389.4695010537095L1501.6601217448501 389.4695010537095Q1506.7920363052467 389.4695010537095 1511.0303339023903 397.1035431112149Q1515.2430995862978 404.7375851687203 1515.2430995862978 409.86949972911685L1515.2430995862978 409.86949972911685Q1515.2430995862978 419.4439671925433 1508.5537383185174 424.85673279853376Q1501.8388451375008 430.2694984045242 1493.3877818564497 430.2694984045242ZM1525.4558648806194 526.524811303505Q1523.3367160820476 521.6482158754663 1522.4175672055587 515.1120460871007Q1521.4984183290696 508.60140821197064 1521.4984183290696 496.83119621026503Q1521.4984183290696 485.06098420855943 1525.915439318864 465.01843231845334L1525.915439318864 465.01843231845334L1517.6430994304633 465.01843231845334Q1515.4473548921842 465.01843231845334 1515.4473548921842 463.18013456547544L1515.4473548921842 463.18013456547544Q1515.4473548921842 458.76311357568136 1516.26437611573 455.9290712065071Q1517.0813973392756 453.0694969240971 1520.2218226672794 449.3929014181413L1520.2218226672794 449.3929014181413L1524.6388436570737 449.3929014181413Q1527.1920349806542 449.3929014181413 1530.1537369160073 449.2141780254907L1530.1537369160073 449.2141780254907Q1538.9622469823596 420.89928624698416 1548.1537357472491 420.89928624698416L1548.1537357472491 420.89928624698416Q1555.5069267591607 421.0780096396348 1558.4430967812782 430.2694984045242L1558.4430967812782 430.2694984045242Q1559.1835222651162 432.8482216413404 1560.1026711416052 435.7843916634578L1560.1026711416052 435.7843916634578L1552.5707567370432 449.03545463284007Q1565.4388410078884 449.3929014181413 1568.8345854682502 449.3929014181413Q1572.2303299286123 449.3929014181413 1572.5111809742061 450.03119924903643Q1572.7920320198 450.69502899316734 1572.7920320198 451.9716246549575L1572.7920320198 451.9716246549575Q1572.7920320198 455.29077337561205 1571.234585312416 460.243964543358Q1569.6771386050318 465.19715571110396 1567.6345855461673 465.01843231845334L1567.6345855461673 465.01843231845334L1549.2516080163887 464.09928344196436Q1545.396289117782 486.541835176236 1545.396289117782 501.24821720005906Q1545.396289117782 515.9545992238822 1549.6345867149257 515.9545992238822L1549.6345867149257 515.9545992238822Q1553.1324588282307 515.9545992238822 1562.3239475931202 510.15885491935467Q1571.5154363580098 504.3631106148272 1575.5494786492668 499.0269407485442Q1579.5835209405236 493.6907708822611 1582.1622441773397 493.6907708822611L1582.1622441773397 493.6907708822611Q1584.7409674141559 493.6907708822611 1584.7409674141559 499.9460896250331Q1584.7409674141559 506.2014083678051 1580.323946424362 512.7375781561709Q1575.906925434568 519.2482160313009 1569.2175641667873 524.686513550527Q1562.5026709857707 530.0992791565175 1554.3069268370778 533.5971512698227Q1546.1367146016205 537.0950233831278 1540.0601192514991 537.0950233831278Q1534.009055814614 537.0950233831278 1530.7920347469023 534.2354491007177Q1527.575013679191 531.3758748183077 1525.4558648806194 526.524811303505ZM1648.5196866771944 493.15460070430925L1648.5196866771944 493.15460070430925Q1651.838835397849 493.15460070430925 1651.838835397849 498.7460897029503Q1651.838835397849 504.3631106148272 1648.979261115439 510.7971527502498Q1646.1452187462646 517.2311948856723 1640.3494744417371 523.2056625828504Q1634.5537301372096 529.1801302800286 1625.5409647649708 533.418427877172Q1616.5537313059676 537.6311935610797 1604.3239448660177 537.6311935610797Q1592.0941584260677 537.6311935610797 1582.9026696611782 530.3801302021113Q1573.7111808962886 523.1035349299073 1573.7111808962886 509.4184294355163Q1573.7111808962886 495.73332394112543 1578.0260742331395 484.6014097703149Q1582.3409675699904 473.46949559950446 1589.438839449544 465.4014110169904Q1596.5111794158615 457.3077945212405 1605.5239447881004 452.78864587850325Q1614.5111782471035 448.2950291490018 1622.6047947428533 448.2950291490018L1622.6047947428533 448.2950291490018Q1636.7750065887244 448.2950291490018 1636.7750065887244 459.5035390595197L1636.7750065887244 459.5035390595197Q1636.7750065887244 465.93758119494225 1634.094155698965 469.79290009354867Q1631.4388367224415 473.6737509053908 1628.6813900929747 473.6737509053908L1628.6813900929747 473.6737509053908Q1625.004794587019 473.6737509053908 1622.2473479575522 471.0950276685747Q1619.4899013280851 468.51630443175844 1616.1707526074306 468.41417677881526Q1612.877135800012 468.3375810391078 1609.8388381249513 471.63119784652656Q1606.8005404498908 474.95034656718104 1604.783519304262 480.1077930408134L1604.783519304262 480.1077930408134Q1600.7239450997695 490.39715407484243 1600.7239450997695 504.18438722217655L1600.7239450997695 504.18438722217655Q1600.9282004056558 510.7971527502498 1606.8005404498908 514.1163014709043L1606.8005404498908 514.1163014709043Q1610.8345827411476 516.3120460091834 1616.3494760000813 516.4141736621266Q1621.864369259015 516.4907694018341 1626.9196880797042 512.8141738958782Q1631.9750069003933 509.13757838992245 1636.2133044975367 504.82268505307167Q1640.4516020946803 500.50779171622077 1643.6686231623917 496.83119621026503Q1646.885644230103 493.15460070430925 1648.5196866771944 493.15460070430925ZM1703.8728745724172 474.7716231745304L1703.8728745724172 474.7716231745304Q1703.8728745724172 468.1588576464572 1696.060109122261 468.1588576464572Q1688.2473436721052 468.1588576464572 1680.6898973543073 480.18438878052086Q1673.157982949745 492.2354518278203 1671.3196851967673 504.7205574001284L1671.3196851967673 504.7205574001284Q1671.7026638953043 508.9588549972719 1672.0601106806057 513.1971525944153Q1672.4175574659068 517.409918278323 1672.4175574659068 521.4694924828159L1672.4175574659068 521.4694924828159Q1672.4175574659068 531.197151425657 1665.9835153304844 534.6950235389622L1665.9835153304844 534.6950235389622Q1663.0473453083669 536.3545978992895 1660.3920263318432 537.8099169537303Q1657.7111754420837 539.290767921407 1654.2388352420144 539.290767921407Q1650.7409631287092 539.290767921407 1648.0601122389498 534.592895886019Q1645.4047932624262 529.9205557638669 1645.4047932624262 519.9886415151391L1645.4047932624262 519.9886415151391Q1645.4047932624262 492.2354518278203 1649.4388355536832 471.835453152413L1649.4388355536832 471.835453152413Q1655.694154296455 440.2014126532519 1674.2558552188846 404.1758830775326L1674.2558552188846 404.1758830775326Q1676.834578455701 399.2226919097866 1681.8133015366827 399.29928764949403Q1686.7664927044286 399.4014153024373 1689.8813861191966 406.1929042231611Q1693.0218114472004 413.00992505712077 1692.9196837942573 417.6056694395654Q1692.84308805455 422.2014138220101 1691.4643647398166 426.516307158861Q1690.085641425083 430.83120049571187 1687.9664926265114 434.9673704399121Q1685.8473438279398 439.10354038411236 1683.1920248514161 443.4184337209632Q1680.5111739616568 447.73332705781405 1677.9324507248402 452.71205013879586L1677.9324507248402 452.71205013879586L1675.1750040953734 465.93758119494225Q1682.3494717146345 453.988645800586 1694.4771305016413 449.95460350932905L1694.4771305016413 449.95460350932905Q1698.8941514914354 448.4737525416524 1704.2303213577184 448.4737525416524L1704.2303213577184 448.4737525416524Q1716.7409588432624 448.4737525416524 1723.1750009786851 454.09077345352927Q1729.6090431141074 459.6822624521703 1729.6090431141074 469.89502774649185Q1729.6090431141074 480.1077930408134 1726.928192224348 490.57587746749306Q1724.2728732478245 501.04396189417264 1723.0728733257415 505.56311053690996Q1721.872873403659 510.05672726641143 1721.872873403659 512.9928972885289Q1721.872873403659 515.9545992238822 1723.8898945492874 515.9545992238822L1723.8898945492874 515.9545992238822Q1726.6473411787542 515.9545992238822 1730.7069153832472 512.456727110577Q1734.740957674504 508.9588549972719 1738.800531878997 504.82268505307167Q1742.8345741702537 500.6865151088714 1746.2303186306158 497.1886429955663Q1749.6260630909778 493.6907708822611 1750.928190666004 493.6907708822611L1750.928190666004 493.6907708822611Q1753.50691390282 493.6907708822611 1753.50691390282 499.9460896250331L1753.50691390282 499.9460896250331Q1753.50691390282 512.8141738958782 1740.8175530246253 524.7631092902345L1740.8175530246253 524.7631092902345Q1719.4984054727292 537.2737467757784 1713.6005335152586 537.2737467757784L1713.6005335152586 537.2737467757784Q1713.0643633373065 537.2737467757784 1712.8601080314202 537.0950233831278L1712.8601080314202 537.0950233831278Q1698.153726007597 537.0950233831278 1698.153726007597 513.5545993797166L1698.153726007597 513.5545993797166Q1698.153726007597 503.44396173833826 1700.0941514135181 494.99289845728714Q1702.0345768194393 486.541835176236 1702.9537256959284 482.66098436439387Q1703.8728745724172 478.80566546578746 1703.8728745724172 474.7716231745304ZM1787.1324436343739 516.4907694018341L1787.1324436343739 516.4907694018341Q1801.4813788728957 516.4907694018341 1814.8856333216927 505.1035360986655L1814.8856333216927 505.1035360986655Q1819.8643564026743 500.865238501522 1822.9792498174425 497.29077064850946Q1826.1196751454463 493.6907708822611 1827.7537175925381 493.6907708822611L1827.7537175925381 493.6907708822611Q1830.3324408293543 493.6907708822611 1830.3324408293543 498.8482173558935Q1830.3324408293543 504.00566382952593 1827.574994199887 510.3375783120053Q1824.8175475704202 516.6694927944847 1818.383505434998 522.746088144606L1818.383505434998 522.746088144606Q1802.579251142035 537.6311935610797 1775.0047848473669 537.6311935610797L1775.0047848473669 537.6311935610797Q1753.123935204283 537.6311935610797 1745.2345740144196 521.826939268117L1745.2345740144196 521.826939268117Q1742.4771273849528 516.3120460091834 1742.4771273849528 506.0226849751544Q1742.4771273849528 495.73332394112543 1746.5111696762096 484.6014097703149Q1750.545211967467 473.46949559950446 1757.2601051484835 465.4014110169904Q1763.9749983294996 457.3077945212405 1772.8090403090878 452.78864587850325Q1781.6175503754403 448.2950291490018 1791.651592277111 448.2950291490018Q1801.6601022655464 448.2950291490018 1807.0728678715368 453.24822031674773Q1812.511165390763 458.2269433977295 1812.511165390763 466.1163045875929Q1812.511165390763 474.03119769069207 1808.5537188392132 479.08651651138126Q1804.5962722876634 484.14183533207046 1798.3409535448918 487.5375797924324Q1792.1111667153555 490.9333242527943 1784.4771246578503 493.61417514255373Q1776.8430826003446 496.26949411907736 1769.4898915884332 499.58864283973185L1769.4898915884332 499.58864283973185L1769.4898915884332 504.18438722217655Q1769.668614981084 510.7971527502498 1775.0047848473669 513.5545993797166Q1780.3409547136498 516.3120460091834 1787.1324436343739 516.4907694018341ZM1784.0175502196057 464.6609855331521L1784.0175502196057 464.6609855331521Q1774.4430827561791 464.6609855331521 1770.7664872502232 486.89928196153727L1770.7664872502232 486.89928196153727Q1774.6473380620655 484.3205587247211 1778.0430825224275 482.3035375790926Q1781.4388269827896 480.2865164334641 1784.0175502196057 478.4482186804862L1784.0175502196057 478.4482186804862Q1789.5324434785393 474.3886444759933 1789.71116687119 469.2567299155968L1789.71116687119 469.2567299155968Q1789.71116687119 464.6609855331521 1784.0175502196057 464.6609855331521ZM1845.6005249443647 444.7971570356966L1845.6005249443647 444.7971570356966Q1852.213290472438 444.7971570356966 1858.085630516673 457.4865179138912L1858.085630516673 457.4865179138912Q1866.7409491036105 448.4737525416524 1879.5069057215123 448.4737525416524Q1892.2983942526503 448.4737525416524 1898.7324363880725 454.09077345352927Q1905.1664785234952 459.6822624521703 1905.1664785234952 469.89502774649185Q1905.1664785234952 480.1077930408134 1902.485627633736 490.57587746749306Q1899.8303086572123 501.04396189417264 1898.6303087351298 505.56311053690996Q1897.4303088130468 510.05672726641143 1897.4303088130468 512.9928972885289Q1897.4303088130468 515.9545992238822 1899.4473299586753 515.9545992238822L1899.4473299586753 515.9545992238822Q1902.204776588142 515.9545992238822 1906.264350792635 512.456727110577Q1910.2983930838918 508.9588549972719 1914.3579672883848 504.82268505307167Q1918.3920095796416 500.6865151088714 1921.7877540400036 497.1886429955663Q1925.1834985003657 493.6907708822611 1926.4856260753918 493.6907708822611L1926.4856260753918 493.6907708822611Q1929.064349312208 493.6907708822611 1929.064349312208 499.9460896250331L1929.064349312208 499.9460896250331Q1929.064349312208 512.8141738958782 1916.3749884340132 524.7631092902345L1916.3749884340132 524.7631092902345Q1895.055840882117 537.2737467757784 1889.1579689246464 537.2737467757784L1889.1579689246464 537.2737467757784Q1888.6217987466944 537.2737467757784 1888.417543440808 537.0950233831278L1888.417543440808 537.0950233831278Q1873.7111614169849 537.0950233831278 1873.7111614169849 513.5545993797166L1873.7111614169849 513.5545993797166Q1873.7111614169849 503.44396173833826 1875.6515868229058 494.99289845728714Q1877.5920122288271 486.541835176236 1878.5111611053158 482.66098436439387Q1879.4303099818048 478.80566546578746 1879.4303099818048 474.7716231745304L1879.4303099818048 474.7716231745304Q1879.4303099818048 468.1588576464572 1871.7962679242996 468.1588576464572Q1864.162225866794 468.1588576464572 1857.2686092931272 479.4439632966825Q1850.37499271946 490.7546008601437 1847.9749928752944 502.88225964715053L1847.9749928752944 502.88225964715053L1847.9749928752944 504.18438722217655Q1847.9749928752944 510.4397059649485 1849.9154182812154 517.0524714930217Q1851.8558436871367 523.665237021095 1851.8558436871367 526.2439602579111L1851.8558436871367 526.2439602579111Q1851.8558436871367 532.4992790006831 1836.2303127868245 538.5503424375686L1836.2303127868245 538.5503424375686Q1833.830312942659 539.4694913140576 1831.9920151896813 539.4694913140576L1831.9920151896813 539.4694913140576Q1827.3962708072368 539.4694913140576 1825.6601007072018 534.6950235389622Q1823.8983986939315 529.9205557638669 1823.8983986939315 519.8099181224886L1823.8983986939315 519.8099181224886Q1823.8983986939315 493.6907708822611 1825.91541983956 482.12481418644194L1825.91541983956 482.12481418644194Q1828.6728664690268 464.8397089258027 1838.426057325104 449.95460350932905L1838.426057325104 449.95460350932905Q1841.7452060457586 444.7971570356966 1845.6005249443647 444.7971570356966Z " fill="#209cee" transform="matrix(0.45358779529901727,0,0,0.45358779529901727,0,89.3223002243105)"/></g></svg>